<?xml version="1.0" encoding="utf-8"?>
<!-- Generator: Adobe Illustrator 23.1.0, SVG Export Plug-In . SVG Version: 6.00 Build 0)  -->
<svg version="1.1" id="Layer_1" xmlns="http://www.w3.org/2000/svg" xmlns:xlink="http://www.w3.org/1999/xlink" x="0px" y="0px"
	 viewBox="0 0 1189.6 143" style="enable-background:new 0 0 1189.6 143;" xml:space="preserve">
<style type="text/css">
	.st0{fill:#0F0F0F;}
</style>
<g id="Guide">
	<g>
		<g id="Layer_5">
		</g>
		<g id="Layer_4">
		</g>
		<g id="Layer_3">
		</g>
	</g>
	<g id="Layer_6">
		<g id="Layer_14">
		</g>
		<g id="Layer_12">
		</g>
		<g id="Layer_11">
		</g>
		<g id="Layer_10">
		</g>
		<g id="Layer_9">
		</g>
		<g id="Layer_8">
		</g>
		<g id="Layer_7">
		</g>
	</g>
</g>
<g>
	<g>
		<path class="st0" d="M53.8,108.8L21.9,37.1h15.4l19.4,43.4c3.2-7.2,6.4-14.5,9.6-21.7c3.2-7.3,6.4-14.5,9.7-21.6h15.4l-31.6,71.7
			L53.8,108.8L53.8,108.8z"/>
		<path class="st0" d="M131.7,108.1V37.2h14v70.9H131.7z"/>
		<path class="st0" d="M213.6,108.8c-3.1,0-6.1-0.4-9-1.3s-5.6-2.1-8.2-3.8h0.1c-1.8-1.1-3.4-2.4-4.9-3.8c-1.4-1.4-2.4-2.3-2.9-2.9
			l10.5-9.7c0.5,0.6,1.2,1.3,2.3,2.2c1,0.8,2.2,1.7,3.6,2.4c1.4,0.8,2.8,1.4,4.3,2c1.5,0.5,2.9,0.8,4.3,0.8c1.1,0,2.3-0.1,3.4-0.4
			c1.1-0.3,2.2-0.7,3.1-1.3c0.9-0.6,1.7-1.3,2.3-2.3c0.6-0.9,0.9-2.1,0.9-3.5c0-0.5-0.2-1.1-0.6-1.8c-0.4-0.6-1-1.3-1.9-2.1
			c-0.9-0.7-2.2-1.5-3.8-2.4c-1.6-0.8-3.6-1.7-6.1-2.7c-2.8-1.1-5.5-2.2-7.9-3.5c-2.4-1.2-4.5-2.7-6.3-4.4c-1.8-1.7-3.2-3.6-4.2-5.8
			c-1-2.2-1.5-4.7-1.5-7.5c0-2.9,0.5-5.6,1.6-8.2c1.1-2.5,2.6-4.7,4.6-6.6s4.4-3.3,7.2-4.4c2.8-1,5.9-1.6,9.3-1.6
			c1.8,0,3.8,0.2,5.8,0.7c2.1,0.5,4.1,1.1,6,1.8c2,0.7,3.8,1.6,5.5,2.6s3.2,2,4.3,3l-8.7,10.9c-1.3-0.9-2.6-1.7-4-2.4
			c-1.1-0.6-2.5-1.2-4-1.7s-3-0.8-4.6-0.8c-2.8,0-5.1,0.6-6.6,1.7c-1.6,1.1-2.4,2.7-2.4,4.8c0,0.9,0.3,1.8,0.9,2.6
			c0.6,0.8,1.4,1.5,2.3,2.1c1,0.6,2.1,1.2,3.4,1.8c1.3,0.5,2.6,1,4.1,1.5c4.1,1.6,7.5,3.1,10.2,4.7c2.8,1.6,5,3.3,6.7,5.1
			c1.7,1.8,2.9,3.7,3.6,5.8c0.7,2.1,1.1,4.3,1.1,6.7c0,3-0.6,5.8-1.8,8.4s-2.9,4.9-5,6.8s-4.7,3.4-7.6,4.6
			C220.2,108.2,217.1,108.8,213.6,108.8z"/>
		<path class="st0" d="M282.3,108.1V37.2h14v70.9H282.3z"/>
		<path class="st0" d="M377,108.8c-4.5,0-9-0.8-13.3-2.5s-8.2-4.1-11.6-7.2s-6.1-6.9-8.2-11.4s-3.1-9.4-3.1-14.9
			c0-4.7,0.9-9.3,2.7-13.7c1.8-4.4,4.3-8.3,7.6-11.6c3.2-3.3,7-6,11.5-8c4.4-2,9.2-3,14.4-3c4.7,0,9.2,0.9,13.5,2.7
			c4.4,1.8,8.2,4.3,11.6,7.5c3.3,3.2,6,7,8.1,11.5c2,4.5,3,9.3,3,14.6c0,4.7-0.9,9.2-2.7,13.5c-1.8,4.4-4.3,8.2-7.5,11.6
			c-3.2,3.3-7,6-11.5,8C387.1,107.8,382.3,108.8,377,108.8z M377,50.5c-3,0-5.9,0.6-8.6,1.7s-5,2.7-7,4.8c-2,2-3.6,4.4-4.8,7.1
			c-1.1,2.7-1.7,5.6-1.7,8.6s0.6,5.9,1.8,8.6c1.2,2.7,2.8,5,4.8,7s4.3,3.6,7,4.7s5.5,1.7,8.6,1.7s5.9-0.6,8.6-1.7s5-2.7,7-4.7
			s3.6-4.3,4.7-7s1.7-5.5,1.7-8.6c0-3-0.6-5.9-1.8-8.6c-1.2-2.7-2.8-5.1-4.8-7.1s-4.3-3.6-7-4.8C382.8,51.1,380,50.5,377,50.5z"/>
		<path class="st0" d="M458.3,36.4h6.2L502.8,79V37.1h14v71.7h-6.3l-38.2-42.5v41.8h-14V36.4z"/>
		<path class="st0" d="M595.1,36.4l31.9,71.7h-15.5l-5.8-13h-27.1c-0.9,2-1.8,4.2-2.9,6.5c-1,2.3-2,4.5-2.8,6.4h-15.4L589,36.3
			L595.1,36.4L595.1,36.4z M599.5,81l-7.3-16.4L584.9,81H599.5z"/>
		<path class="st0" d="M726.6,108.1h-17.2L690.1,81h-8.5v27.1h-14V37.2h28.7c3,0,5.8,0.6,8.4,1.7c2.6,1.1,4.9,2.7,6.9,4.7
			s3.6,4.3,4.8,6.9c1.2,2.6,1.8,5.5,1.8,8.5c0,4.5-1.1,8.5-3.4,12c-2.3,3.5-5.3,6.2-9,7.9L726.6,108.1z M693.7,67
			c3.6,0,6.2-0.8,7.9-2.4s2.5-3.5,2.5-5.6c0-2.2-0.8-4-2.5-5.5s-4.3-2.3-7.9-2.3h-12.1V67H693.7z"/>
		<path class="st0" d="M821.1,37.1l-26.6,36.7v34.3h-14.1V73.8c-2-2.8-4.2-5.8-6.4-8.9c-2.3-3.1-4.5-6.2-6.8-9.4
			c-2.3-3.2-4.5-6.3-6.8-9.4S756,40,754,37.2h17.3l16.2,22.5l16.1-22.5h17.5V37.1z"/>
		<path class="st0" d="M977,96.2c-4,4-8.3,7.1-12.9,9.3c-4.6,2.2-9.5,3.3-14.6,3.3c-5.5,0-10.4-1-14.9-3.1s-8.3-4.8-11.4-8.2
			c-3.1-3.4-5.6-7.2-7.2-11.6c-1.7-4.3-2.5-8.7-2.5-13.3c0-5.3,1-10.1,3-14.6s4.7-8.3,8-11.5s7.2-5.7,11.6-7.5
			c4.4-1.8,8.9-2.7,13.5-2.7c4.7,0,9.4,1,14,3s8.8,4.8,12.4,8.6l-9.8,9.9c-2.4-2.4-5-4.2-7.9-5.5s-5.8-1.9-8.8-1.9s-5.9,0.6-8.6,1.8
			c-2.7,1.2-5,2.8-7,4.8s-3.6,4.3-4.7,7c-1.1,2.7-1.7,5.6-1.7,8.6s0.6,5.9,1.7,8.6c1.1,2.7,2.7,5,4.7,7s4.3,3.6,7,4.7
			s5.5,1.7,8.6,1.7c3.4,0,6.5-0.7,9.4-2.2s5.6-3.5,8.3-6.1L977,96.2z"/>
		<path class="st0" d="M1033.4,51.2v14.3h23v14.2h-23V94h31.5v14.1h-45.6V37.2h45.6v14.1h-31.5V51.2z"/>
		<path class="st0" d="M1140.8,108.8c-4.5,0-9-0.8-13.3-2.5s-8.2-4.1-11.6-7.2s-6.1-6.9-8.2-11.4s-3.1-9.4-3.1-14.9
			c0-4.7,0.9-9.3,2.7-13.7c1.8-4.4,4.3-8.3,7.6-11.6c3.2-3.3,7-6,11.5-8c4.4-2,9.2-3,14.4-3c4.7,0,9.2,0.9,13.5,2.7
			c4.4,1.8,8.2,4.3,11.6,7.5c3.3,3.2,6,7,8.1,11.5c2,4.5,3,9.3,3,14.6c0,4.7-0.9,9.2-2.7,13.5c-1.8,4.4-4.3,8.2-7.5,11.6
			c-3.2,3.3-7,6-11.5,8C1150.9,107.8,1146.1,108.8,1140.8,108.8z M1140.8,50.5c-3,0-5.9,0.6-8.6,1.7s-5,2.7-7,4.8
			c-2,2-3.6,4.4-4.8,7.1c-1.1,2.7-1.7,5.6-1.7,8.6s0.6,5.9,1.8,8.6c1.2,2.7,2.8,5,4.8,7s4.3,3.6,7,4.7s5.5,1.7,8.6,1.7
			c3,0,5.9-0.6,8.6-1.7s5-2.7,7-4.7s3.6-4.3,4.7-7s1.7-5.5,1.7-8.6c0-3-0.6-5.9-1.8-8.6c-1.2-2.7-2.8-5.1-4.8-7.1s-4.3-3.6-7-4.8
			C1146.6,51.1,1143.8,50.5,1140.8,50.5z"/>
	</g>
</g>
</svg>
