<?xml version="1.0" encoding="utf-8"?>
<!-- Generator: Adobe Illustrator 23.1.0, SVG Export Plug-In . SVG Version: 6.00 Build 0)  -->
<svg version="1.1" id="Layer_1" xmlns="http://www.w3.org/2000/svg" xmlns:xlink="http://www.w3.org/1999/xlink" x="0px" y="0px"
	 viewBox="0 0 1189.6 657.4" style="enable-background:new 0 0 1189.6 657.4;" xml:space="preserve">
<style type="text/css">
	.st0{fill:#0F0F0F;}
</style>
<g id="Guide">
	<g>
		<g id="Layer_5">
		</g>
		<g id="Layer_4">
		</g>
		<g id="Layer_3">
		</g>
	</g>
	<g id="Layer_6">
		<g id="Layer_14">
		</g>
		<g id="Layer_12">
		</g>
		<g id="Layer_11">
		</g>
		<g id="Layer_10">
		</g>
		<g id="Layer_9">
		</g>
		<g id="Layer_8">
		</g>
		<g id="Layer_7">
		</g>
	</g>
</g>
<g>
	<g>
		<path class="st0" d="M53.8,313.8l-31.9-71.7h15.4l19.4,43.4c3.2-7.2,6.4-14.5,9.6-21.7c3.2-7.3,6.4-14.5,9.7-21.6h15.4l-31.6,71.7
			L53.8,313.8L53.8,313.8z"/>
		<path class="st0" d="M131.7,313.1v-70.9h14v70.9H131.7z"/>
		<path class="st0" d="M213.6,313.8c-3.1,0-6.1-0.4-9-1.3s-5.6-2.1-8.2-3.8h0.1c-1.8-1.1-3.4-2.4-4.9-3.8c-1.4-1.4-2.4-2.3-2.9-2.9
			l10.5-9.7c0.5,0.6,1.2,1.3,2.3,2.2c1,0.8,2.2,1.7,3.6,2.4c1.4,0.8,2.8,1.4,4.3,2c1.5,0.5,2.9,0.8,4.3,0.8c1.1,0,2.3-0.1,3.4-0.4
			c1.1-0.3,2.2-0.7,3.1-1.3c0.9-0.6,1.7-1.3,2.3-2.3c0.6-0.9,0.9-2.1,0.9-3.5c0-0.5-0.2-1.1-0.6-1.8c-0.4-0.6-1-1.3-1.9-2.1
			c-0.9-0.7-2.2-1.5-3.8-2.4c-1.6-0.8-3.6-1.7-6.1-2.7c-2.8-1.1-5.5-2.2-7.9-3.5c-2.4-1.2-4.5-2.7-6.3-4.4c-1.8-1.7-3.2-3.6-4.2-5.8
			c-1-2.2-1.5-4.7-1.5-7.5c0-2.9,0.5-5.6,1.6-8.2c1.1-2.5,2.6-4.7,4.6-6.6s4.4-3.3,7.2-4.4c2.8-1,5.9-1.6,9.3-1.6
			c1.8,0,3.8,0.2,5.8,0.7c2.1,0.5,4.1,1.1,6,1.8c2,0.7,3.8,1.6,5.5,2.6s3.2,2,4.3,3l-8.7,10.9c-1.3-0.9-2.6-1.7-4-2.4
			c-1.1-0.6-2.5-1.2-4-1.7s-3-0.8-4.6-0.8c-2.8,0-5.1,0.6-6.6,1.7c-1.6,1.1-2.4,2.7-2.4,4.8c0,0.9,0.3,1.8,0.9,2.6
			c0.6,0.8,1.4,1.5,2.3,2.1c1,0.6,2.1,1.2,3.4,1.8c1.3,0.5,2.6,1,4.1,1.5c4.1,1.6,7.5,3.1,10.2,4.7c2.8,1.6,5,3.3,6.7,5.1
			c1.7,1.8,2.9,3.7,3.6,5.8c0.7,2.1,1.1,4.3,1.1,6.7c0,3-0.6,5.8-1.8,8.4s-2.9,4.9-5,6.8s-4.7,3.4-7.6,4.6
			C220.2,313.2,217.1,313.8,213.6,313.8z"/>
		<path class="st0" d="M282.3,313.1v-70.9h14v70.9H282.3z"/>
		<path class="st0" d="M377,313.8c-4.5,0-9-0.8-13.3-2.5s-8.2-4.1-11.6-7.2s-6.1-6.9-8.2-11.4s-3.1-9.4-3.1-14.9
			c0-4.7,0.9-9.3,2.7-13.7c1.8-4.4,4.3-8.3,7.6-11.6c3.2-3.3,7-6,11.5-8c4.4-2,9.2-3,14.4-3c4.7,0,9.2,0.9,13.5,2.7
			c4.4,1.8,8.2,4.3,11.6,7.5c3.3,3.2,6,7,8.1,11.5c2,4.5,3,9.3,3,14.6c0,4.7-0.9,9.2-2.7,13.5c-1.8,4.4-4.3,8.2-7.5,11.6
			c-3.2,3.3-7,6-11.5,8C387.1,312.8,382.3,313.8,377,313.8z M377,255.5c-3,0-5.9,0.6-8.6,1.7s-5,2.7-7,4.8c-2,2-3.6,4.4-4.8,7.1
			c-1.1,2.7-1.7,5.6-1.7,8.6s0.6,5.9,1.8,8.6c1.2,2.7,2.8,5,4.8,7s4.3,3.6,7,4.7s5.5,1.7,8.6,1.7s5.9-0.6,8.6-1.7s5-2.7,7-4.7
			s3.6-4.3,4.7-7s1.7-5.5,1.7-8.6c0-3-0.6-5.9-1.8-8.6c-1.2-2.7-2.8-5.1-4.8-7.1s-4.3-3.6-7-4.8C382.8,256.1,380,255.5,377,255.5z"
			/>
		<path class="st0" d="M458.3,241.4h6.2l38.3,42.6v-41.9h14v71.7h-6.3l-38.2-42.5v41.8h-14V241.4z"/>
		<path class="st0" d="M595.1,241.4l31.9,71.7h-15.5l-5.8-13h-27.1c-0.9,2-1.8,4.2-2.9,6.5c-1,2.3-2,4.5-2.8,6.4h-15.4l31.5-71.7
			L595.1,241.4L595.1,241.4z M599.5,286l-7.3-16.4l-7.3,16.4H599.5z"/>
		<path class="st0" d="M726.6,313.1h-17.2L690.1,286h-8.5v27.1h-14v-70.9h28.7c3,0,5.8,0.6,8.4,1.7c2.6,1.1,4.9,2.7,6.9,4.7
			s3.6,4.3,4.8,6.9s1.8,5.5,1.8,8.5c0,4.5-1.1,8.5-3.4,12c-2.3,3.5-5.3,6.2-9,7.9L726.6,313.1z M693.7,272c3.6,0,6.2-0.8,7.9-2.4
			s2.5-3.5,2.5-5.6c0-2.2-0.8-4-2.5-5.5s-4.3-2.3-7.9-2.3h-12.1V272H693.7z"/>
		<path class="st0" d="M821.1,242.1l-26.6,36.7v34.3h-14.1v-34.3c-2-2.8-4.2-5.8-6.4-8.9c-2.3-3.1-4.5-6.2-6.8-9.4
			c-2.3-3.2-4.5-6.3-6.8-9.4s-4.4-6.1-6.4-8.9h17.3l16.2,22.5l16.1-22.5h17.5V242.1z"/>
		<path class="st0" d="M977,301.2c-4,4-8.3,7.1-12.9,9.3c-4.6,2.2-9.5,3.3-14.6,3.3c-5.5,0-10.4-1-14.9-3.1s-8.3-4.8-11.4-8.2
			c-3.1-3.4-5.6-7.2-7.2-11.6c-1.7-4.3-2.5-8.7-2.5-13.3c0-5.3,1-10.1,3-14.6s4.7-8.3,8-11.5s7.2-5.7,11.6-7.5
			c4.4-1.8,8.9-2.7,13.5-2.7c4.7,0,9.4,1,14,3s8.8,4.8,12.4,8.6l-9.8,9.9c-2.4-2.4-5-4.2-7.9-5.5s-5.8-1.9-8.8-1.9s-5.9,0.6-8.6,1.8
			c-2.7,1.2-5,2.8-7,4.8s-3.6,4.3-4.7,7c-1.1,2.7-1.7,5.6-1.7,8.6s0.6,5.9,1.7,8.6c1.1,2.7,2.7,5,4.7,7s4.3,3.6,7,4.7
			s5.5,1.7,8.6,1.7c3.4,0,6.5-0.7,9.4-2.2s5.6-3.5,8.3-6.1L977,301.2z"/>
		<path class="st0" d="M1033.4,256.2v14.3h23v14.2h-23V299h31.5v14.1h-45.6v-70.9h45.6v14.1h-31.5V256.2z"/>
		<path class="st0" d="M1140.8,313.8c-4.5,0-9-0.8-13.3-2.5s-8.2-4.1-11.6-7.2s-6.1-6.9-8.2-11.4s-3.1-9.4-3.1-14.9
			c0-4.7,0.9-9.3,2.7-13.7c1.8-4.4,4.3-8.3,7.6-11.6c3.2-3.3,7-6,11.5-8c4.4-2,9.2-3,14.4-3c4.7,0,9.2,0.9,13.5,2.7
			c4.4,1.8,8.2,4.3,11.6,7.5c3.3,3.2,6,7,8.1,11.5c2,4.5,3,9.3,3,14.6c0,4.7-0.9,9.2-2.7,13.5c-1.8,4.4-4.3,8.2-7.5,11.6
			c-3.2,3.3-7,6-11.5,8C1150.9,312.8,1146.1,313.8,1140.8,313.8z M1140.8,255.5c-3,0-5.9,0.6-8.6,1.7s-5,2.7-7,4.8
			c-2,2-3.6,4.4-4.8,7.1c-1.1,2.7-1.7,5.6-1.7,8.6s0.6,5.9,1.8,8.6c1.2,2.7,2.8,5,4.8,7s4.3,3.6,7,4.7s5.5,1.7,8.6,1.7
			c3,0,5.9-0.6,8.6-1.7s5-2.7,7-4.7s3.6-4.3,4.7-7s1.7-5.5,1.7-8.6c0-3-0.6-5.9-1.8-8.6c-1.2-2.7-2.8-5.1-4.8-7.1s-4.3-3.6-7-4.8
			C1146.6,256.1,1143.8,255.5,1140.8,255.5z"/>
	</g>
</g>
<g>
	<path d="M589.2,378.2c0.8-0.3,1.5-0.5,2.1-1.1c1.1-1.3,2.6-2.2,4-3.4l0.1-0.1c0,0.1,0,0.1-0.1,0.2c-0.1,0.3-0.1,0.5-0.2,0.7
		c-2.2,5.1-3.2,10.3-3.2,15.9c0,2.5,0.4,4.7,1.5,6.9c0.8,1.5,2.1,2.3,3.7,2.4c1.1,0.1,2.2-0.1,3.2-0.3c1.5-0.3,2.7-1,4.2-1.5l1-0.5
		c0.5-0.2,0.6-0.3,0.9-0.5c3.4-2.1,6.8-4.2,9.1-7.6c1-1.5,0.8-3,0.4-4.5c-0.1-0.3-0.3-0.7-0.7-0.6c-1.1,0.4-2.4,0.4-3.3,1.4
		c-1.1,1.1-2.1,2.2-3.3,3.1c-3,2.5-6.1,4.7-9.8,6.1c-0.5,0.2-1,0.3-1.5,0.2c-1-0.1-1.1-1-1.2-1.6c0-0.1,0-0.3,0-0.5c0,0,0.1,0,0.2,0
		c0.2,0,0.6,0,0.9,0c1-0.1,1.6-0.6,1.9-1.5c0.4-1.2,1.1-2.2,1.8-3.1c2.1-2.8,4.9-5,7.1-7.6c0.3-0.4,0.7-0.7,0.8-1.3
		c0.2-1.2-0.2-2.1-1.2-2.5c-0.9-0.4-2-0.3-2.9,0.3c-2.9,2.3-5.9,4.5-8.4,7.6c0.3-3,1-5.7,1.9-8.2c0.4-1.2,1-2.3,2.1-3
		c0.8-0.5,1-1.6,0.3-2.3c-0.2-0.3-0.1-0.1-0.5-0.5c0,0-0.1,0-0.1,0l0.4-0.2c0.1-0.1,0.3-0.2,0.5-0.4c1.9-1.4,3.9-2.6,5.9-3.8
		c1.5-1,2.2-2.5,2.9-4c0.3-0.7-0.1-0.8-0.5-0.8c-1.7,0.1-3.5,0.1-5,1c-5.4,3.1-10.8,6.2-15.6,10.4c-1.9,1.6-2,3.4-0.3,5.3
		C588.5,378.2,588.8,378.4,589.2,378.2z"/>
	<path d="M723.2,347.2c-3.7,0.7-7.5,1.3-11.1,2.5c-18.7,6.4-37,14-54.9,22.4c-3.4,1.6-6.8,3.2-10.3,4.8c0-0.7-0.1-1.3-0.1-1.8
		c-0.1-4.9-0.2-9.7-0.3-14.6c0-2.3-0.1-4.6-0.3-6.9c-0.3-4-0.5-7.9-1-11.8c-0.2-1.8,0-3.9-1.4-5.4c-0.4-0.4-2.8-1.3-3.2-1
		c-0.8,0.6-0.6,1.6-0.5,2.5c0,0,0,0.1,0,0.1c0.5,1.7,0.5,3.5,0.7,5.3c0.3,4.2,0.6,8.4,0.7,12.6c0.2,7.5,0.3,15,0.5,22.5
		c0,0.7,0,0.4,0,0.9l-0.8,0.4c-5.1,2.5-10.1,5-15.2,7.5c-6.9,3.5-13.7,7-20.6,10.5c-0.1,0-0.2,0.1-0.3,0.2s-0.2,0.1-0.3,0.2
		c-4.8,2.5-9.5,5.1-14.3,7.6c0,0-0.1,0.1-0.2,0.1l-0.2,0.1c-0.9,0-1.8,0-2.7,0.2c-1.1,0.2-2.2,0.7-3.2,1.2c-0.5,0.2-1,0.5-1.5,0.8
		c-1,0.6-2,1.1-3.1,1.5c-1.1,0.3-1.7,0-2-1.1c-0.6-2.2-0.1-4.4,0.3-6.7c0.8-4.3,2-8.5,4-12.5c0.2-0.4,0.4-0.8,1.1-0.5
		c0.7,0.2,1.4-0.2,1.8-0.8c0.5-0.9-0.2-3.5-1.1-4.2c-1.6-1.2-4-0.8-5,1c-3.4,5.8-4.8,12.2-5.6,18.8c-0.2,1.9-0.2,3.8,0.2,5.7
		c0.2,0.9,0.6,1.8,1.1,2.6c0.4,0.7,0.9,1.5,1.7,1.7l0,0c-0.2,0.1-0.6,0.3-0.8,0.4c-2,1.1-4,2.2-6,3.4c0-0.3,0-0.6,0-0.8
		c0-3.2,0.5-6.4,0.7-9.6c0.2-2.7,0.3-5.5,0.6-8.2c0.2-2.9,0.1-5.7-0.4-8.6c-0.5-2.7-2.8-4.1-4.2-4.1c-2.3,0-4.2,0.8-5.6,2.7
		c-1,1.3-2,2.6-2.9,3.9c-1.5,2.2-2.8,4.6-4.1,7l-0.3,0.7l0,0c-2.2-1.3-4.3-0.8-5.4,1.2c-0.6,1-1.2,2-2,2.7c-1,0.9-1.1,1.5-0.3,2.6
		c0.2,0.2,0.3,0.4,0.4,0.7c0.2,0.7,0.8,0.9,1.5,0.8c0.9-0.2,2.1-0.4,2.6-0.7l0,0c-0.1,0.5-0.1,0.6-0.3,1c-0.7,2-1.2,4-1.8,6.1
		c-0.7,2.5,0.3,4.4,1.8,6.2c0.1,0.2,0.5,0.3,0.8,0.3c1.2,0.2,2.8-0.9,3.3-2c0.8-2.1,0.7-4.3,1.4-6.4c2-6.1,4.7-11.7,8.3-17
		c0.5-0.8,1-1.7,2-2.4c0,0.5,0,0.8,0,1.2c-0.2,3.6-0.4,7.3-0.7,10.9c-0.2,2.2-0.6,4.4-0.7,6.6c-0.1,2.4-0.4,4.8,0.6,7.1
		c0.3,0.7,0.1,0.4,0.3,0.8c0,0,0,0,0,0c-4.5,2.7-12.1,7.1-20.6,12.1c0-0.3,0-0.5,0-0.5c-0.2-6.3-0.1-12.6-1-18.8
		c-0.5-3.7-1.2-7.4-3-10.7c-2.4-4.6-6.1-5.9-10.8-3.8c-1.9,0.8-3.2,2.3-4.4,3.8c-2.7,3.1-4.9,6.6-6.9,10.3c-2-1.8-2.9-1.6-4.8,0.3
		c-1.3,1.3-1.9,3-2.3,4.8c-0.5,2.8-1,5.7-1,8.6l0,0.5c-0.1,0.1-0.2,0.2-0.4,0.3c-1.1,0.9-1.1,1.5-0.4,2.8c0.2,0.3,0.2,0.3,0.5,0.6
		l0,0l0,0.3c-0.4,3.7-0.5,7.5-1.3,11.2c-0.1,0.8-0.2,1.5-0.4,2.3c-0.4,1.6,0.8,2.5,1.5,3.7c0.5,0.7,1,1,1.8,0.7
		c1.6-0.5,2.4-1.6,2.7-3.3c1-5.6,2.4-11.2,4.2-16.7c0.1-0.5,0.2-0.9,0.4-1.3l0.1-0.3c0.5-0.3,0.7-0.4,1.1-0.7c3.1-1.9,6.1-4,9.2-5.9
		c1.4-0.9,1.9-2.2,2.4-3.6c0.3-0.7,0-1.3-1-1.3c-1.2,0-2.3,0.1-3.5,0.5c-1.7,0.5-3.1,1.7-4.9,2.5c1.9-4.2,4.2-8,6.8-11.5
		c1.1-1.5,2.2-3,3.7-4c0.9-0.6,1.7-0.5,2.6,0.1c0.6,0.5,1,1.2,1.2,1.9c1.4,4.6,2.1,9.3,2.2,14.1c0.2,5.2,0,10.4-0.2,15.6
		c0,0,0,0.4,0,1c-15.6,9.2-32.6,19.2-38.8,22.9c-10.2,6.1-20.4,12.4-31.3,17.2c-3.2,1.4-6.4,2.6-9.8,3c-2,0.3-2.2-0.4-2.2-1.8
		c0.1-3.3,0.9-6.4,1.6-9.6c3.2-13,7.2-25.8,10.5-38.7c2.7-10.2,5-20.4,7.2-30.7c1.1-5.3,2.2-10.6,3.1-16c0.6-3.4,1.2-6.9,1.6-10.3
		c0.2-2.5,0.7-4.9,0.9-7.4c0.2-2.4,0.6-4.7,0.3-7.1c-0.2-1.9-2.2-3.7-4.1-3.6c-0.3,0-0.5,0.2-0.6,0.5c-0.9,1.6-0.8,3.4-0.3,5
		c0.2,0.7,0.4,1.4,0.3,2.1c-0.5,3.9-1,7.8-1.7,11.7c-1,5.6-1.9,11.2-3,16.8c-1.2,6.1-2.7,12.2-4.1,18.3c-2.3,10-4.9,19.8-7.8,29.6
		c-3,10.2-6.5,20.3-9.1,30.7c-0.8,3.2-1.5,6.5-0.6,9.7c0.9,3.2,2.5,5.8,6.3,6.3c1.7,0.2,3.3-0.2,4.9-0.5c5.1-1.2,9.9-3.4,14.6-5.7
		c11-5.4,21.3-11.8,31.8-18.1c15.3-9.2,30.5-18.4,45.9-27.3c10.6-6,21.2-12.2,31.9-18c15.9-8.6,31.9-16.8,48-24.9
		c2.6-1.3,5.3-2.5,8-3.8c0,0.4,0,0.6,0,0.9c0,9.7,0,19.5-0.4,29.2c-0.2,4.7-0.4,9.5,0,14.2c0.2,2.8,0.3,5.6,2.5,7.9
		c0.6,0.6,1,1.3,1.8,0.9c1-0.4,2.1-0.9,2-2.4c0-0.7,0-1.5-0.1-2.2c-0.5-3.9-0.8-7.8-0.8-11.7c-0.1-12.7,0-25.5,0-38.2l0-1l0.9-0.4
		c13.9-6.6,27.9-12.7,42.2-18.5c8.4-3.4,16.9-6.4,25.4-9.6c5.4-2,10.5-4.8,15.6-7.4c1-0.5,2.1-1,3-1.8
		C730.3,345.6,726.8,346.4,723.2,347.2z"/>
	<path d="M625.1,430.4c-0.3-2.2-0.6-4.3-1.5-6.4c-0.6-1.5-2.2-2.5-3.4-2.5c-2.2,0.1-3.6,1.3-4.6,3.2c-1.2,2.4-2.3,4.8-3.7,7
		c-1.6,2.5-3.1,5.1-5.2,7.6c0-0.7,0-1.1,0-1.5c0.1-1.4,0.2-2.7,0.2-4c0-1.5-1.8-3.2-3-2.9c-1.5,0.3-3.1,0.7-3.4,2.6
		c-0.1,0.5-0.5,1-0.6,1.5c-0.1,0.2-0.2,0.6-0.4,1.1c-0.3,0-1,0.1-1,0.1c-1.2,0-1.7,0.7-1.9,1.7c-0.3,1.4-0.6,2.7-0.7,4.1
		c-0.2,2.3-0.4,4.6-0.6,7.1c-1.5-1.4-3.2-1.5-5-1.2c-1.4,0.2-2.8,0.5-4.1,0.9c-8.3,2.3-16.1,5.6-24.1,8.7c-2.1,0.9-4.3,1.7-6.4,2.6
		c3-3.8,6.1-7.3,9.3-10.9c6-6.9,12.4-13.4,19.1-19.6c1.1-1,1.4-2.4,0.7-3.2c-0.9-1.1-2.8-1.2-3.9-0.3c-2.3,1.8-4.4,3.7-6.4,5.7
		c-8,7.7-15.3,16-22.8,24.1c-2.3,2.5-4.7,5-7.2,7.4c-0.9,0.9-1.4,1.9-0.9,3.1c0.4,0.9,0.9,1.8,1.5,2.6c0.2,0.4,0.7,0.5,1.2,0.5
		c0,0,0,0,0,0c0.9,0,1.8-0.3,2.6-0.7c8.5-3.5,17.1-7.1,25.6-10.5c4.7-1.9,9.4-3.7,14.6-5.1c-0.5,0.7-0.8,1.2-1.2,1.6
		c-5.7,6.9-11.9,13.4-18.9,19c-4.7,3.7-9.4,7.3-14.8,9.9c-0.6,0.3-0.5,0.6-0.5,1.1c0.1,1.1,1,1.6,1.5,2.5c0.4,0.7,0.9,0.9,1.7,0.8
		c2.2-0.4,4.2-1.3,6.1-2.3c6.8-3.6,12.5-8.7,18.1-13.8c5-4.5,9.5-9.4,13.4-14.9c-0.1,1.5,0.9,2.5,1.5,3.6c0,0,0,0,0,0
		c0.1,0.1,0.2,0.3,0.4,0.5c0.1,0.1,0.2,0.1,0.2,0.1c0,0,0.1,0,0.1,0c0.1,0,0.2,0,0.3,0l0,0c0.1,0,0.3-0.1,0.5-0.1c0,0,0,0,0,0
		c1.3-0.4,2.3-1,2.6-2.6c0.1-0.9,0.5-1.7,0.7-2.6c0.7-3.5,1.6-6.9,2.5-10.3c1.7,1.4,2,1.4,4.1,0.8c2.5-0.7,4.2-2.5,5.6-4.5
		c2.4-3.2,4.5-6.7,6.7-10.5c0.3,3.2,0.6,6.2,1,9.2c0.4,2.9,0.3,5.8,2.1,8.4c0.5,0.7,0.8,1.3,1.7,1.2c1.3-0.2,2.5-1.1,2.5-1.9
		c0-0.9,0.1-1.9,0-2.8C626.2,440.5,625.9,435.4,625.1,430.4z M595.8,454c0.1-0.7,0.2-1.5,0.3-2.3C596.2,452.3,596.1,453.1,595.8,454
		z"/>
	<path d="M694.6,409.2c-5.4,1.2-10.9,2.6-16.5,2.3c-2.4-0.1-4.6-0.7-6-2.9c-0.7-1-1.3-2-1.7-3.2c-0.6-1.7-1.2-3.5-1.9-5.2
		c-0.8-1.8-1.9-2.4-3.8-2c-0.2,0-0.4,0-0.6,0.1c0-0.2,0-0.3,0-0.5c0.3-2.8-0.1-5.6,0.6-8.4c0.3-1.1,0.4-2.2,0.5-3.4
		c0.1-1.1-0.6-1.9-1.6-2.2c-1.3-0.4-2.2,0.2-2.6,1.5c-0.2,0.7-0.4,1.4-0.4,2c0,4-0.1,7.9-0.5,11.9c-0.3,2.4-0.5,4.8-0.9,7.3
		c-0.5,3.6-1.6,7.1-2.3,10.7c-0.2,1.2,0.8,3.1,2,3.9c0.4,0.2,0.7,0.2,1,0.2c0,0,0,0,0,0c0,0,0.1,0,0.2-0.1c0,0,0,0,0,0
		c0.3-0.2,0.6-0.4,1-0.6c0.7-0.4,0.9-1.1,1.1-1.8c0.5-2.1,0.9-4.2,1.5-6.3c0.6-2.4,1.3-4.8,2-7.5c0.6,1.9,1.4,3.5,2.1,5
		c2.2,4.4,5.7,6.6,10.6,6.7c2.7,0,5.3,0,7.9-0.5c3.5-0.6,6.8-1.7,10-3.2c0.5-0.3,1.1-0.6,1.2-1.3C697.7,410,696.3,408.8,694.6,409.2
		z"/>
	<path d="M632.5,417.8c-1-2.8-1.9-3.3-4.7-2.5c-0.6,0.2-0.8,0.5-0.7,1.1c0.1,0.5,0.2,0.9,0.4,1.4c1,2.4,1.4,4.9,1.7,7.5
		c0.4,3.4,0.6,6.9,1,10.3c0.2,1.8,0.4,3.7,1.2,5.4c0.3,0.7,0.6,1.7,1.4,1.7c1,0,1.5-1,1.7-2c0-0.1,0-0.2,0-0.4
		c0.4-1.5,0.1-3,0.4-4.4c-0.2-2.9-0.2-5.8-0.6-8.6C634,424.1,633.7,420.9,632.5,417.8z"/>
	<path d="M625.8,412.4c1.4,0,2.8-1,3-2.4c0.1-0.4,0.2-0.7,0.3-1c0.4-1,0.7-2.1,0-3c-0.7-0.9-1.6-1.8-3-1.3c-0.2,0.1-0.5,0-0.4,0
		c-1.6,0-2.2,0.5-2.3,1.8c-0.2,1.9,0.7,3.5,1.4,5.1C624.9,412.1,625.3,412.4,625.8,412.4z"/>
</g>
</svg>
